<svg width="30" height="30" viewBox="0 0 30 30" fill="none" xmlns="http://www.w3.org/2000/svg">
<path fill-rule="evenodd" clip-rule="evenodd" d="M14.5914 30C22.6503 30 29.1829 23.3112 29.1829 15.0597C29.1829 6.80825 22.6503 0.119507 14.5914 0.119507C6.53259 0.119507 0 6.80825 0 15.0597C0 23.3112 6.53259 30 14.5914 30ZM15.6858 6.0956C15.6858 5.79842 15.5705 5.51341 15.3653 5.30327C15.16 5.09314 14.8817 4.97508 14.5914 4.97508C14.3012 4.97508 14.0228 5.09314 13.8176 5.30327C13.6124 5.51341 13.4971 5.79842 13.4971 6.0956V6.5692C11.1187 7.00546 9.11965 8.83564 9.11965 11.3247C9.11965 14.1887 11.7651 16.1803 14.5914 16.1803C16.6007 16.1803 17.8745 17.5338 17.8745 18.7948C17.8745 20.0558 16.6007 21.4093 14.5914 21.4093C12.5837 21.4093 11.3084 20.0558 11.3084 18.7948C11.3084 18.4976 11.1931 18.2126 10.9878 18.0025C10.7826 17.7923 10.5042 17.6743 10.214 17.6743C9.92376 17.6743 9.64541 17.7923 9.44018 18.0025C9.23495 18.2126 9.11965 18.4976 9.11965 18.7948C9.11965 21.2838 11.1187 23.114 13.4971 23.5503V24.0239C13.4971 24.3211 13.6124 24.6061 13.8176 24.8162C14.0228 25.0263 14.3012 25.1444 14.5914 25.1444C14.8817 25.1444 15.16 25.0263 15.3653 24.8162C15.5705 24.6061 15.6858 24.3211 15.6858 24.0239V23.5503C18.0642 23.114 20.0632 21.2838 20.0632 18.7948C20.0632 15.9308 17.4178 13.9392 14.5914 13.9392C12.5837 13.9392 11.3084 12.5856 11.3084 11.3247C11.3084 10.0637 12.5837 8.71014 14.5914 8.71014C16.6007 8.71014 17.8745 10.0637 17.8745 11.3247C17.8745 11.6219 17.9898 11.9069 18.195 12.117C18.4003 12.3271 18.6786 12.4452 18.9689 12.4452C19.2591 12.4452 19.5375 12.3271 19.7427 12.117C19.9479 11.9069 20.0632 11.6219 20.0632 11.3247C20.0632 8.83564 18.0642 7.00546 15.6858 6.5692V6.0956Z" fill="#F9A825"/>
<ellipse cx="24.9222" cy="5.1992" rx="5.07782" ry="5.1992" fill="#171717"/>
<path d="M22.7139 5.58577C22.6285 5.44135 22.6236 5.29519 22.6989 5.1473C22.7743 4.99941 22.8909 4.92533 23.0488 4.92504L24.6936 4.92504L24.6936 1.4589C24.6936 1.33614 24.7314 1.23332 24.8071 1.15042C24.8827 1.06752 24.9762 1.02592 25.0876 1.02564C25.1989 1.02535 25.2924 1.06694 25.3681 1.15042C25.4437 1.23389 25.4815 1.33672 25.4815 1.4589L25.4815 4.92504L27.1264 4.92504C27.2839 4.92504 27.4006 4.99912 27.4762 5.1473C27.5518 5.29548 27.5469 5.44163 27.4612 5.58577L25.4224 9.11689C25.3436 9.25409 25.232 9.32269 25.0876 9.32269C24.9431 9.32269 24.8315 9.25409 24.7527 9.11689L22.7139 5.58577Z" fill="#F9A825"/>
</svg>
