<svg width="28" height="28" viewBox="0 0 28 28" fill="none" xmlns="http://www.w3.org/2000/svg">
<path fill-rule="evenodd" clip-rule="evenodd" d="M13.6187 28C21.1403 28 27.2374 21.7572 27.2374 14.0558C27.2374 6.35441 21.1403 0.111572 13.6187 0.111572C6.09709 0.111572 0 6.35441 0 14.0558C0 21.7572 6.09709 28 13.6187 28ZM14.6401 5.68927C14.6401 5.4119 14.5325 5.14589 14.3409 4.94976C14.1494 4.75363 13.8896 4.64345 13.6187 4.64345C13.3478 4.64345 13.088 4.75363 12.8964 4.94976C12.7049 5.14589 12.5973 5.4119 12.5973 5.68927V6.1313C10.3774 6.53847 8.51168 8.24664 8.51168 10.5698C8.51168 13.2429 10.9807 15.1016 13.6187 15.1016C15.494 15.1016 16.6829 16.365 16.6829 17.5419C16.6829 18.7188 15.494 19.9821 13.6187 19.9821C11.7448 19.9821 10.5545 18.7188 10.5545 17.5419C10.5545 17.2645 10.4469 16.9985 10.2553 16.8024C10.0638 16.6062 9.80397 16.4961 9.53308 16.4961C9.26219 16.4961 9.00239 16.6062 8.81084 16.8024C8.61929 16.9985 8.51168 17.2645 8.51168 17.5419C8.51168 19.865 10.3774 21.5732 12.5973 21.9803V22.4224C12.5973 22.6997 12.7049 22.9657 12.8964 23.1619C13.088 23.358 13.3478 23.4682 13.6187 23.4682C13.8896 23.4682 14.1494 23.358 14.3409 23.1619C14.5325 22.9657 14.6401 22.6997 14.6401 22.4224V21.9803C16.8599 21.5732 18.7257 19.865 18.7257 17.5419C18.7257 14.8688 16.2566 13.01 13.6187 13.01C11.7448 13.01 10.5545 11.7466 10.5545 10.5698C10.5545 9.39286 11.7448 8.12951 13.6187 8.12951C15.494 8.12951 16.6829 9.39286 16.6829 10.5698C16.6829 10.8471 16.7905 11.1131 16.9821 11.3093C17.1736 11.5054 17.4334 11.6156 17.7043 11.6156C17.9752 11.6156 18.235 11.5054 18.4265 11.3093C18.6181 11.1131 18.7257 10.8471 18.7257 10.5698C18.7257 8.24664 16.8599 6.53847 14.6401 6.1313V5.68927Z" fill="#576CFE"/>
<ellipse cx="23.2607" cy="4.8526" rx="4.7393" ry="4.8526" fill="#171717"/>
<path d="M25.6307 4.44504C25.7104 4.57983 25.715 4.71625 25.6447 4.85428C25.5743 4.99231 25.4655 5.06145 25.3182 5.06172L23.783 5.06172L23.783 8.29679C23.783 8.41136 23.7477 8.50734 23.6771 8.58471C23.6065 8.66208 23.5192 8.7009 23.4153 8.70117C23.3114 8.70144 23.2241 8.66262 23.1535 8.58471C23.0829 8.5068 23.0476 8.41082 23.0476 8.29679L23.0476 5.06172L21.5124 5.06172C21.3653 5.06172 21.2565 4.99257 21.1859 4.85428C21.1153 4.71598 21.12 4.57957 21.1999 4.44504L23.1027 1.14932C23.1763 1.02126 23.2805 0.957238 23.4153 0.957238C23.5501 0.957238 23.6543 1.02126 23.7278 1.14932L25.6307 4.44504Z" fill="#576CFE"/>
</svg>
